# xmcd
#
# Track frame offsets: 
#        150
#        27115
#        46533
#        72997
#        92283
#        119943
#        134449
#        142417
#        170821
#        186184
#        213102
#        224656
#        262213
#        291944
#
# Disc length: 4287 seconds
#
# Revision: 0
# Processed by: cddbd v1.5.2PL0 Copyright (c) Steve Scherf et al.
# Submitted via: ExactAudioCopyFreeDBPlugin 1.0
#
DISCID=e810bd0e
DTITLE=Carey Bell and Lurrie Bell - Dynasty
DYEAR=2013
DGENRE=Blues
TTITLE0=Brought Up The Hard Way
TTITLE1=I Shoulda Did) What My Mama Told Me
TTITLE2=Sail On
TTITLE3=I'll Be Your 44
TTITLE4=The Gladys Shuffle
TTITLE5=I Need You So Bad
TTITLE6=1215 W. Belmont
TTITLE7=Second Hand Man
TTITLE8=New Harp In Town
TTITLE9=Going Back To Louisiana
TTITLE10=No Picks
TTITLE11=Don't Need No Woman
TTITLE12=Going Upstairs
TTITLE13=It's So Easy To Love You
EXTD=
EXTT0=
EXTT1=
EXTT2=
EXTT3=
EXTT4=
EXTT5=
EXTT6=
EXTT7=
EXTT8=
EXTT9=
EXTT10=
EXTT11=
EXTT12=
EXTT13=
PLAYORDER=
